<svg width="32" height="32" viewBox="0 0 32 32" fill="none" xmlns="http://www.w3.org/2000/svg">
<path fill-rule="evenodd" clip-rule="evenodd" d="M5.33333 6.66663C4.59696 6.66663 4 7.26359 4 7.99996C4 8.73633 4.59696 9.33329 5.33333 9.33329H26.6667C27.4031 9.33329 28 8.73633 28 7.99996C28 7.26359 27.4031 6.66663 26.6667 6.66663H5.33333ZM9.33333 16C9.33333 15.2636 9.93029 14.6666 10.6667 14.6666H26.6667C27.4031 14.6666 28 15.2636 28 16C28 16.7364 27.4031 17.3333 26.6667 17.3333H10.6667C9.93029 17.3333 9.33333 16.7364 9.33333 16ZM17.3333 24C17.3333 23.2636 17.9303 22.6666 18.6667 22.6666H26.6667C27.4031 22.6666 28 23.2636 28 24C28 24.7364 27.4031 25.3333 26.6667 25.3333H18.6667C17.9303 25.3333 17.3333 24.7364 17.3333 24Z" fill="white"/>
</svg>
